# xmcd
#
# Track frame offsets:
#	150
#	21065
#	43992
#	60805
#	77611
#	89305
#	104213
#	120531
#	135116
#	151016
#
# Disc length: 2460 seconds
#
# Revision: 0
# Processed by: cddbd v1.5.2PL0 Copyright (c) Steve Scherf et al.
# Submitted via: FairStars CD Ripper 1.52
#
DISCID=6e099a0a
DTITLE=Dixie Grease - Reunion Show
DYEAR=1979
DGENRE=Country
TTITLE0=Wang Dang Doodle
TTITLE1=On Down The Line
TTITLE2=Going To Louisiana
TTITLE3=Room To Room
TTITLE4=All Shook Up
TTITLE5=Key To The Highway
TTITLE6=T.B. Blues
TTITLE7=Runaway
TTITLE8=Follow You Down
TTITLE9=Willie and the Hand Jive
EXTD=
EXTT0=
EXTT1=
EXTT2=
EXTT3=
EXTT4=
EXTT5=
EXTT6=
EXTT7=
EXTT8=
EXTT9=
PLAYORDER=
